<svg width="50" height="50" viewBox="0 0 50 50" fill="none" xmlns="http://www.w3.org/2000/svg">
<path d="M22.7917 28.125L20.0417 30.875C19.6234 29.1911 18.6537 27.6957 17.2869 26.6269C15.9202 25.5581 14.235 24.9774 12.5 24.9774C10.765 24.9774 9.0798 25.5581 7.7131 26.6269C6.3463 27.6957 5.3766 29.1911 4.9583 30.875L2.2083 28.125L0 30.3333L3.5833 33.9167L3.125 34.375V37.5H0V40.625H3.125V40.7917C3.2844 41.8097 3.5714 42.8037 3.9792 43.75L0 47.7917L2.2083 50L5.6458 46.5625C6.4637 47.606 7.5025 48.4553 8.6875 49.0497C9.8726 49.644 11.1746 49.9686 12.5 50C13.8254 49.9686 15.1274 49.644 16.3125 49.0497C17.4976 48.4553 18.5363 47.606 19.3542 46.5625L22.7917 50L25 47.7917L21.0208 43.75C21.4337 42.7838 21.7208 41.7685 21.875 40.7292V40.5208H25V37.5H21.875V34.375L21.4167 33.9167L25 30.3333L22.7917 28.125ZM12.5 28.125C13.7432 28.125 14.9355 28.6189 15.8146 29.4979C16.6936 30.377 17.1875 31.5693 17.1875 32.8125H7.8125C7.8125 31.5693 8.3064 30.377 9.1854 29.4979C10.0645 28.6189 11.2568 28.125 12.5 28.125ZM18.75 40.625C18.5974 42.2309 17.8899 43.7335 16.7492 44.8742C15.6085 46.0149 14.1059 46.7224 12.5 46.875C10.8941 46.7224 9.3915 46.0149 8.2508 44.8742C7.1101 43.7335 6.4026 42.2309 6.25 40.625V35.9375H18.75V40.625ZM49.5 20V22.625L28.125 36.1875V32.5L45.8333 21.3125L18.75 4.16667V23.875C17.798 23.2063 16.7422 22.6995 15.625 22.375V1.3125L18 0L49.5 20Z" fill="#444444"/>
</svg>
