<svg width="38" height="51" viewBox="0 0 38 51" fill="none" xmlns="http://www.w3.org/2000/svg">
<path d="M37.661 17.189C37.668 15.7386 37.272 14.3147 36.515 13.0769C35.759 11.8392 34.674 10.8363 33.38 10.1808C32.086 9.52521 30.635 9.24277 29.19 9.36509C27.744 9.48742 26.362 10.0096 25.196 10.8734C24.031 11.7371 23.129 12.9081 22.592 14.2554C22.055 15.6026 21.903 17.0729 22.154 18.5015C22.405 19.93 23.049 21.2606 24.013 22.344C24.977 23.4274 26.224 24.221 27.614 24.6359C27.101 25.6789 26.307 26.5581 25.322 27.1747C24.336 27.7914 23.198 28.121 22.036 28.1265H15.786C13.472 28.1346 11.244 29.0035 9.53596 30.564V15.4671C11.433 15.0799 13.119 14.0021 14.266 12.4428C15.413 10.8834 15.941 8.95352 15.746 7.02727C15.552 5.10102 14.649 3.31563 13.213 2.01725C11.777 0.718874 9.90996 0 7.97296 0C6.03696 0 4.16996 0.718874 2.73396 2.01725C1.29796 3.31563 0.394962 5.10102 0.200962 7.02727C0.00596243 8.95352 0.533958 10.8834 1.68096 12.4428C2.82796 14.0021 4.51396 15.0799 6.41096 15.4671V34.5296C4.51796 34.8917 2.82196 35.9342 1.64396 37.4603C0.466963 38.9865 -0.112036 40.8908 0.0179638 42.8141C0.147964 44.7374 0.976965 46.5468 2.34897 47.901C3.72097 49.2551 5.54096 50.0604 7.46596 50.165C9.39096 50.2695 11.287 49.6661 12.798 48.4686C14.308 47.271 15.329 45.5621 15.666 43.6641C16.003 41.7662 15.634 39.8104 14.629 38.1657C13.623 36.5209 12.051 35.301 10.208 34.7359C10.722 33.694 11.516 32.8161 12.502 32.2006C13.487 31.5851 14.624 31.2565 15.786 31.2515H22.036C23.986 31.2425 25.884 30.6257 27.467 29.4869C29.05 28.3482 30.239 26.7442 30.867 24.8984C32.74 24.652 34.461 23.7352 35.71 22.3178C36.959 20.9003 37.652 19.0783 37.661 17.189ZM3.28596 7.81403C3.28596 6.88693 3.56096 5.98065 4.07596 5.20979C4.59096 4.43894 5.32296 3.83813 6.17996 3.48334C7.03596 3.12856 7.97896 3.03573 8.88796 3.2166C9.79696 3.39746 10.632 3.84391 11.288 4.49946C11.944 5.15502 12.39 5.99025 12.571 6.89954C12.752 7.80883 12.659 8.75133 12.304 9.60786C11.949 10.4644 11.349 11.1964 10.578 11.7115C9.80696 12.2266 8.90096 12.5015 7.97296 12.5015C6.72996 12.5015 5.53796 12.0076 4.65896 11.1286C3.77996 10.2495 3.28596 9.05723 3.28596 7.81403ZM12.661 42.189C12.661 43.1161 12.386 44.0224 11.871 44.7932C11.356 45.5641 10.624 46.1649 9.76696 46.5197C8.91096 46.8745 7.96796 46.9673 7.05896 46.7864C6.14996 46.6056 5.31396 46.1591 4.65896 45.5036C4.00296 44.848 3.55696 44.0128 3.37596 43.1035C3.19496 42.1942 3.28796 41.2517 3.64296 40.3952C3.99796 39.5386 4.59796 38.8065 5.36896 38.2915C6.13996 37.7764 7.04596 37.5015 7.97296 37.5015C9.21696 37.5015 10.409 37.9954 11.288 38.8744C12.167 39.7535 12.661 40.9458 12.661 42.189ZM29.848 21.8765C28.921 21.8765 28.015 21.6016 27.244 21.0865C26.473 20.5714 25.873 19.8394 25.518 18.9828C25.163 18.1263 25.07 17.1838 25.251 16.2745C25.432 15.3652 25.878 14.53 26.534 13.8744C27.189 13.2189 28.025 12.7724 28.934 12.5916C29.843 12.4107 30.786 12.5035 31.642 12.8583C32.499 13.2131 33.231 13.8139 33.746 14.5848C34.261 15.3556 34.536 16.2619 34.536 17.189C34.536 18.4322 34.042 19.6245 33.163 20.5036C32.284 21.3826 31.092 21.8765 29.848 21.8765Z" fill="#444444"/>
</svg>
