<svg width="26" height="21" viewBox="0 0 26 21" fill="none" xmlns="http://www.w3.org/2000/svg">
<path d="M25.8 2.5001C24.9 2.9001 23.9 3.2001 22.9 3.3001C24 2.7001 24.7999 1.7001 25.1999 0.500098C24.1999 1.1001 23.1 1.5001 21.9 1.7001C21 0.700098 19.5999 0.100098 18.1999 0.100098C15.3999 0.100098 13.0999 2.4001 13.0999 5.2001C13.0999 5.6001 13.1 6.0001 13.2 6.4001C8.89995 6.2001 5.19995 4.1001 2.59995 1.0001C2.09995 1.8001 1.79995 2.7001 1.79995 3.6001C1.79995 5.4001 2.69995 6.9001 4.09995 7.9001C3.29995 7.9001 2.49995 7.6001 1.79995 7.3001C1.79995 7.3001 1.79995 7.3001 1.79995 7.4001C1.79995 9.9001 3.59995 12.0001 5.89995 12.4001C5.49995 12.5001 4.99995 12.6001 4.49995 12.6001C4.19995 12.6001 3.79995 12.6001 3.49995 12.5001C4.19995 14.5001 5.99995 16.0001 8.29995 16.1001C6.49995 17.5001 4.29995 18.3001 1.89995 18.3001C1.49995 18.3001 1.09995 18.3001 0.699951 18.2001C2.99995 19.7001 5.69995 20.5001 8.59995 20.5001C17.9999 20.5001 23.1999 12.7001 23.1999 5.9001C23.1999 5.7001 23.1999 5.5001 23.1999 5.2001C24.1999 4.5001 25.1 3.6001 25.8 2.5001Z" fill="#808285"/>
</svg>
