<svg width="35" height="50" viewBox="0 0 35 50" fill="none" xmlns="http://www.w3.org/2000/svg">
<path d="M17.1875 0C18.7663 0 20.2881 0.203451 21.7529 0.610352C23.2178 1.01725 24.585 1.59505 25.8545 2.34375C27.1403 3.09245 28.304 3.98763 29.3457 5.0293C30.3874 6.07096 31.2826 7.2347 32.0312 8.52051C32.7799 9.79004 33.3577 11.1572 33.7646 12.6221C34.1716 14.0869 34.375 15.6087 34.375 17.1875C34.375 19.5475 33.9274 21.7367 33.0322 23.7549C32.137 25.7731 30.8594 27.6042 29.1992 29.248C27.8483 30.5827 26.8066 32.0719 26.0742 33.7158C25.3581 35.3597 25 37.1419 25 39.0625V45.3125C25 45.9635 24.8779 46.5739 24.6338 47.1436C24.3896 47.7132 24.056 48.2096 23.6328 48.6328C23.2096 49.056 22.7132 49.3896 22.1436 49.6338C21.5739 49.8779 20.9635 50 20.3125 50H14.0625C13.4115 50 12.8011 49.8779 12.2314 49.6338C11.6618 49.3896 11.1654 49.056 10.7422 48.6328C10.319 48.2096 9.9854 47.7132 9.7412 47.1436C9.4971 46.5739 9.375 45.9635 9.375 45.3125V39.0625C9.375 37.1419 9.0088 35.3597 8.2764 33.7158C7.5602 32.0719 6.5267 30.5827 5.1758 29.248C3.5156 27.6042 2.238 25.7731 1.34277 23.7549C0.44759 21.7367 0 19.5475 0 17.1875C0 15.6087 0.20345 14.0869 0.61035 12.6221C1.01725 11.1572 1.59505 9.79004 2.3438 8.52051C3.0924 7.2347 3.9876 6.07096 5.0293 5.0293C6.071 3.98763 7.2266 3.09245 8.4961 2.34375C9.7819 1.59505 11.1572 1.01725 12.6221 0.610352C14.0869 0.203451 15.6087 0 17.1875 0ZM20.3125 46.875C20.7357 46.875 21.1019 46.7204 21.4111 46.4111C21.7204 46.1019 21.875 45.7357 21.875 45.3125V40.625H12.5V45.3125C12.5 45.7357 12.6546 46.1019 12.9639 46.4111C13.2731 46.7204 13.6393 46.875 14.0625 46.875H20.3125ZM21.9482 37.5C22.1598 35.4004 22.6969 33.4961 23.5596 31.7871C24.4222 30.0781 25.5859 28.4831 27.0508 27.002C28.4017 25.6348 29.4352 24.1455 30.1514 22.5342C30.8838 20.9066 31.25 19.1243 31.25 17.1875C31.25 15.2507 30.8757 13.4277 30.127 11.7188C29.3945 10.0098 28.3936 8.52051 27.124 7.25098C25.8545 5.98145 24.3652 4.98047 22.6562 4.24805C20.9473 3.49935 19.1243 3.125 17.1875 3.125C15.2507 3.125 13.4277 3.49935 11.7188 4.24805C10.0098 4.98047 8.5205 5.98145 7.251 7.25098C5.9814 8.52051 4.9723 10.0098 4.2236 11.7188C3.4912 13.4277 3.125 15.2507 3.125 17.1875C3.125 19.1243 3.4831 20.9066 4.1992 22.5342C4.9316 24.1455 5.9733 25.6348 7.3242 27.002C8.7891 28.4831 9.9528 30.0781 10.8154 31.7871C11.6781 33.4961 12.2152 35.4004 12.4268 37.5H21.9482Z" fill="#444444"/>
</svg>
