<svg width="50" height="50" viewBox="0 0 50 50" fill="none" xmlns="http://www.w3.org/2000/svg">
<path fill-rule="evenodd" clip-rule="evenodd" d="M28.125 3.125L31.25 0H46.875L50 3.125V18.75L46.875 21.875H31.25L28.125 18.75V3.125ZM31.25 3.125V18.75H46.875V3.125H31.25ZM0 31.25V12.5L3.125 9.37499H18.75L21.875 12.5V28.125L20.312 29.6875L20.313 29.6876L21.875 28.125H37.5L40.625 31.25V46.875L37.5 50H21.875H18.75V49.9997V50H3.125L0 46.875V31.25ZM3.125 46.875V31.25H18.75V46.875H3.125ZM21.875 46.875V31.25H37.5V46.875H21.875ZM3.125 28.125V12.5H18.75V28.125H3.125Z" fill="#444444"/>
</svg>
